<?xml version="1.0" encoding="UTF-8" standalone="no"?>
<!-- Created with Inkscape (http://www.inkscape.org/) -->

<svg
   xmlns:osb="http://www.openswatchbook.org/uri/2009/osb"
   xmlns:dc="http://purl.org/dc/elements/1.1/"
   xmlns:cc="http://creativecommons.org/ns#"
   xmlns:rdf="http://www.w3.org/1999/02/22-rdf-syntax-ns#"
   xmlns:svg="http://www.w3.org/2000/svg"
   xmlns="http://www.w3.org/2000/svg"
   xmlns:sodipodi="http://sodipodi.sourceforge.net/DTD/sodipodi-0.dtd"
   xmlns:inkscape="http://www.inkscape.org/namespaces/inkscape"
   width="23.833706mm"
   height="23.833666mm"
   viewBox="0 0 84.450139 84.449997"
   id="svg2"
   version="1.1"
   inkscape:version="0.91 r13725"
   sodipodi:docname="TurnupLogo.svg">
  <defs
     id="defs4">
    <linearGradient
       id="linearGradient5604"
       osb:paint="solid">
      <stop
         style="stop-color:#ffffff;stop-opacity:1;"
         offset="0"
         id="stop5606" />
    </linearGradient>
  </defs>
  <sodipodi:namedview
     id="base"
     pagecolor="#ffffff"
     bordercolor="#666666"
     borderopacity="1.0"
     inkscape:pageopacity="0.0"
     inkscape:pageshadow="2"
     inkscape:zoom="4.8457143"
     inkscape:cx="42.225073"
     inkscape:cy="58.734433"
     inkscape:document-units="px"
     inkscape:current-layer="layer3"
     showgrid="false"
     inkscape:window-width="1920"
     inkscape:window-height="1017"
     inkscape:window-x="-8"
     inkscape:window-y="-8"
     inkscape:window-maximized="1"
     fit-margin-top="0"
     fit-margin-left="0"
     fit-margin-right="0"
     fit-margin-bottom="0" />
  <metadata
     id="metadata7">
    <rdf:RDF>
      <cc:Work
         rdf:about="">
        <dc:format>image/svg+xml</dc:format>
        <dc:type
           rdf:resource="http://purl.org/dc/dcmitype/StillImage" />
        <dc:title></dc:title>
      </cc:Work>
    </rdf:RDF>
  </metadata>
  <g
     inkscape:groupmode="layer"
     id="layer2"
     inkscape:label="Layer 2"
     transform="translate(-299.17627,-32.504522)" />
  <g
     inkscape:groupmode="layer"
     id="layer3"
     inkscape:label="Layer 3"
     style="display:inline"
     transform="translate(-299.17627,-32.504522)">
    <path
       style="display:inline;fill:#ff6868;fill-opacity:1;fill-rule:evenodd;stroke:#000000;stroke-width:0.20217091px;stroke-linecap:butt;stroke-linejoin:miter;stroke-opacity:0"
       d="m 299.31454,46.797068 0,56.247632 c 0,0 -0.94168,13.80739 14.78143,13.80739 l 57.13743,0 c 13.4728,0.15163 12.26381,-12.49822 12.26381,-12.49822 l 0,-60.728306 c 0,0 0.90279,-11.019957 -13.58027,-11.019957 l -57.78363,0 c -14.20613,0 -12.81877,14.191461 -12.81877,14.191461 z"
       id="path5692"
       inkscape:connector-curvature="0"
       sodipodi:nodetypes="ccccccccc"
       inkscape:export-xdpi="159.85765"
       inkscape:export-ydpi="159.85765" />
    <path
       style="display:inline;fill:#ffffff;fill-opacity:1;fill-rule:evenodd;stroke:#ababab;stroke-width:0.17821212;stroke-linecap:butt;stroke-linejoin:miter;stroke-miterlimit:4;stroke-dasharray:none;stroke-opacity:0.26627221"
       d="m 321.07849,95.364571 c 0,0 -6.35,-7.553471 -7.08544,-17.702511 -0.88509,-9.12713 7.28084,-13.16434 7.28084,-13.16434 0,0 5.20608,-3.35439 10.86526,-3.30239 5.60215,0 7.38194,0.78036 8.86016,0.78036 1.54363,0.066 2.69804,-0.77678 8.00838,-0.88079 3.43862,-0.07815 6.25651,0.44025 8.14256,0.943348 1.6637,0.443785 2.60232,0.875662 2.60232,0.875662 0,0 9.56859,4.30487 8.74413,14.02554 -1.10829,10.33889 -7.08186,18.056271 -7.08186,18.056271 -6.71054,9.119429 -19.90102,17.379009 -19.90102,17.379009 0,0 -13.37512,-7.0082 -20.43533,-17.010159 z"
       id="path5648"
       inkscape:connector-curvature="0"
       sodipodi:nodetypes="ccccccsccccc"
       inkscape:export-xdpi="159.85765"
       inkscape:export-ydpi="159.85765" />
    <path
       style="display:inline;fill:#eeeeee;fill-opacity:1;fill-rule:evenodd;stroke:none;stroke-width:1px;stroke-linecap:butt;stroke-linejoin:miter;stroke-opacity:1"
       d="m 324.79757,62.81292 c 0.55463,0.354961 4.61449,-0.53656 7.94845,0.250746 4.41926,1.043592 8.30287,3.762612 8.30287,3.762612 0,0 4.79876,-3.06058 9.07917,-4.222097 3.6645,-0.99439 7.29549,0.107632 7.80239,-0.328865 C 354.7937,60.993294 346.659,61.177532 346.659,61.177532 l -5.56823,0.818378 -6.19572,-0.775638 c 0,0 -6.14868,-0.330922 -10.09748,1.592648 z"
       id="path4144"
       inkscape:connector-curvature="0"
       sodipodi:nodetypes="cscsccccc"
       inkscape:export-xdpi="159.85765"
       inkscape:export-ydpi="159.85765" />
    <path
       style="display:inline;fill:none;fill-rule:evenodd;stroke:none;stroke-width:1px;stroke-linecap:butt;stroke-linejoin:miter;stroke-opacity:1"
       d="M 341.2459,111.69649 356.31076,100.34626 342.27774,112.10923 323.911,99.314421 340.6268,110.04555"
       id="path4168"
       inkscape:connector-curvature="0"
       inkscape:export-xdpi="159.85765"
       inkscape:export-ydpi="159.85765" />
    <path
       style="display:inline;fill:#26e172;fill-opacity:1;fill-rule:evenodd;stroke:#007815;stroke-width:0.18129413px;stroke-linecap:butt;stroke-linejoin:miter;stroke-opacity:0.26666667"
       d="m 337.13474,55.680742 c 1.00853,3.46802 0.89636,3.82529 0.89636,3.82529 l 1.10048,2.97491 -0.95083,-0.1315 -1.1224,-2.61893 -9.5778,-12.42121 c -2.09514,-2.54411 -1.18815,-4.4752 -1.18815,-4.4752 0,0 6.05188,0.65904 7.84772,3.95141 0.32599,0.63162 0.24755,0.51659 0.65216,1.70038"
       id="path5667"
       inkscape:connector-curvature="0"
       sodipodi:nodetypes="ccccccccc"
       inkscape:export-xdpi="159.85765"
       inkscape:export-ydpi="159.85765" />
    <path
       style="display:inline;fill:#26e172;fill-opacity:1;fill-rule:evenodd;stroke:#006702;stroke-width:0.18177752px;stroke-linecap:butt;stroke-linejoin:miter;stroke-opacity:0.26666667"
       d="m 344.57617,55.184262 c -1.33703,3.99499 -0.85807,4.33097 -0.85807,4.33097 l -1.04542,3.01393 0.97194,-0.22502 1.12038,-2.63766 9.07047,-12.86922 c 1.44362,-2.43672 1.3924,-4.10326 1.3924,-4.10326 0,0 -4.73676,-0.666929 -7.58017,3.67302 -0.26198,0.42808 -0.82125,1.8373 -0.82125,1.8373"
       id="path5667-1"
       inkscape:connector-curvature="0"
       sodipodi:nodetypes="ccccccccc"
       inkscape:export-xdpi="159.85765"
       inkscape:export-ydpi="159.85765" />
    <path
       style="display:inline;fill:#31ff84;fill-opacity:1;fill-rule:evenodd;stroke:#00b707;stroke-width:0.18129413px;stroke-linecap:butt;stroke-linejoin:miter;stroke-opacity:0.26627221"
       d="m 340.65003,62.798402 -0.67344,-3.21754 c 0,0 -3.29237,-2.84341 -5.23786,-10.32607 0.44896,-6.58474 6.13578,-10.026759 6.13578,-10.026759 0,0 5.39503,3.07696 6.1433,9.811359 -1.94549,6.28543 -5.0209,10.46664 -5.0209,10.46664 l -0.43988,3.23946 z"
       id="path5684"
       inkscape:connector-curvature="0"
       sodipodi:nodetypes="cccccccc"
       inkscape:export-xdpi="159.85765"
       inkscape:export-ydpi="159.85765" />
  </g>
  <g
     inkscape:label="Layer 1"
     inkscape:groupmode="layer"
     id="layer1"
     style="display:inline"
     transform="translate(-299.17627,-32.504522)" />
  <g
     inkscape:groupmode="layer"
     id="layer4"
     inkscape:label="Layer 4"
     style="display:inline"
     transform="translate(-299.17627,-32.504522)" />
  <g
     inkscape:groupmode="layer"
     id="layer5"
     inkscape:label="Layer 5"
     style="display:inline"
     transform="translate(-299.17627,-32.504522)" />
</svg>
